<!DOCTYPE svg PUBLIC "-//W3C//DTD SVG 1.1//EN" "http://www.w3.org/Graphics/SVG/1.1/DTD/svg11.dtd">
<!-- Uploaded to: SVG Repo, www.svgrepo.com, Transformed by: SVG Repo Mixer Tools -->
<svg width="800px" height="800px" viewBox="-2.4 -2.4 28.80 28.80" xmlns="http://www.w3.org/2000/svg" aria-labelledby="nightModeIconTitle" stroke="#000000" stroke-width="1" stroke-linecap="square" stroke-linejoin="miter" fill="none" color="#000000">
<g id="SVGRepo_bgCarrier" stroke-width="0">
<path transform="translate(-2.4, -2.4), scale(1.7999999999999998)" fill="#ffffff" d="M9.166.33a2.25 2.25 0 00-2.332 0l-5.25 3.182A2.25 2.25 0 00.5 5.436v5.128a2.25 2.25 0 001.084 1.924l5.25 3.182a2.25 2.25 0 002.332 0l5.25-3.182a2.25 2.25 0 001.084-1.924V5.436a2.25 2.25 0 00-1.084-1.924L9.166.33z" strokewidth="0"/>
</g>
<g id="SVGRepo_tracerCarrier" stroke-linecap="round" stroke-linejoin="round" stroke="#CCCCCC" stroke-width="0.096"/>
<g id="SVGRepo_iconCarrier"> <title id="nightModeIconTitle">Night Mode</title> <path d="M12 19a7 7 0 1 0 0-14 7 7 0 0 0 0 14z"/> <path d="M15.899 12.899a4 4 0 0 1-4.797-4.797A4.002 4.002 0 0 0 12 16c1.9 0 3.49-1.325 3.899-3.101z"/> <path d="M12 5V3M12 21v-2"/> <path d="M5 12H2h3zM22 12h-3 3zM16.95 7.05L19.07 4.93 16.95 7.05zM4.929 19.071L7.05 16.95 4.93 19.07zM16.95 16.95l2.121 2.121-2.121-2.121zM4.929 4.929L7.05 7.05 4.93 4.93z"/> </g>
</svg>